<svg width="39" height="39" viewBox="0 0 39 39" fill="none" xmlns="http://www.w3.org/2000/svg">
<path d="M31.1999 5.19995H7.79995C6.36345 5.19995 5.19995 6.36345 5.19995 7.79995V31.1999C5.19995 32.6364 6.36345 33.7999 7.79995 33.7999H20.7999V22.0999H16.8999V18.1999H20.7999V16.1056C20.7999 12.1406 22.7317 10.4 26.0272 10.4C27.6054 10.4 28.44 10.5169 28.8352 10.5702V14.2999H26.5875C25.1887 14.2999 24.6999 15.0383 24.6999 16.5333V18.1999H28.8001L28.2437 22.0999H24.6999V33.7999H31.1999C32.6364 33.7999 33.7999 32.6364 33.7999 31.1999V7.79995C33.7999 6.36345 32.6351 5.19995 31.1999 5.19995Z" fill="#D9D9D9"/>
</svg>
