<svg width="39" height="39" viewBox="0 0 39 39" fill="none" xmlns="http://www.w3.org/2000/svg">
<path d="M12.9974 3.8999C7.98067 3.8999 3.8999 7.98444 3.8999 13.0024V26.0025C3.8999 31.0192 7.98444 35.0999 13.0024 35.0999H26.0025C31.0192 35.0999 35.0999 31.0154 35.0999 25.9974V12.9974C35.0999 7.98067 31.0154 3.8999 25.9974 3.8999H12.9974ZM28.5999 9.0999C29.3175 9.0999 29.8999 9.6823 29.8999 10.3999C29.8999 11.1175 29.3175 11.6999 28.5999 11.6999C27.8823 11.6999 27.2999 11.1175 27.2999 10.3999C27.2999 9.6823 27.8823 9.0999 28.5999 9.0999ZM19.4999 11.6999C23.8016 11.6999 27.2999 15.1982 27.2999 19.4999C27.2999 23.8016 23.8016 27.2999 19.4999 27.2999C15.1982 27.2999 11.6999 23.8016 11.6999 19.4999C11.6999 15.1982 15.1982 11.6999 19.4999 11.6999ZM19.4999 14.2999C18.1208 14.2999 16.7981 14.8478 15.823 15.823C14.8478 16.7981 14.2999 18.1208 14.2999 19.4999C14.2999 20.879 14.8478 22.2017 15.823 23.1769C16.7981 24.1521 18.1208 24.6999 19.4999 24.6999C20.879 24.6999 22.2017 24.1521 23.1769 23.1769C24.1521 22.2017 24.6999 20.879 24.6999 19.4999C24.6999 18.1208 24.1521 16.7981 23.1769 15.823C22.2017 14.8478 20.879 14.2999 19.4999 14.2999Z" fill="#D9D9D9"/>
</svg>
