<svg width="33" height="33" viewBox="0 0 33 33" fill="none" xmlns="http://www.w3.org/2000/svg">
<path d="M9.99737 0.899902C4.98067 0.899902 0.899902 4.98444 0.899902 10.0024V23.0025C0.899902 28.0192 4.98444 32.0999 10.0024 32.0999H23.0025C28.0192 32.0999 32.0999 28.0154 32.0999 22.9974V9.99737C32.0999 4.98067 28.0154 0.899902 22.9974 0.899902H9.99737ZM25.5999 6.0999C26.3175 6.0999 26.8999 6.6823 26.8999 7.39991C26.8999 8.11751 26.3175 8.69991 25.5999 8.69991C24.8823 8.69991 24.2999 8.11751 24.2999 7.39991C24.2999 6.6823 24.8823 6.0999 25.5999 6.0999ZM16.4999 8.69991C20.8016 8.69991 24.2999 12.1982 24.2999 16.4999C24.2999 20.8016 20.8016 24.2999 16.4999 24.2999C12.1982 24.2999 8.69991 20.8016 8.69991 16.4999C8.69991 12.1982 12.1982 8.69991 16.4999 8.69991ZM16.4999 11.2999C15.1208 11.2999 13.7981 11.8478 12.823 12.823C11.8478 13.7981 11.2999 15.1208 11.2999 16.4999C11.2999 17.879 11.8478 19.2017 12.823 20.1769C13.7981 21.1521 15.1208 21.6999 16.4999 21.6999C17.879 21.6999 19.2017 21.1521 20.1769 20.1769C21.1521 19.2017 21.6999 17.879 21.6999 16.4999C21.6999 15.1208 21.1521 13.7981 20.1769 12.823C19.2017 11.8478 17.879 11.2999 16.4999 11.2999Z" fill="#D9D9D9"/>
</svg>
