<svg width="33" height="33" viewBox="0 0 33 33" fill="none" xmlns="http://www.w3.org/2000/svg">
<path d="M9.99737 0.900024C4.98067 0.900024 0.899902 4.98457 0.899902 10.0026V23.0026C0.899902 28.0193 4.98444 32.1 10.0024 32.1H23.0025C28.0192 32.1 32.0999 28.0155 32.0999 22.9975V9.99749C32.0999 4.98079 28.0154 0.900024 22.9974 0.900024H9.99737ZM25.5999 6.10003C26.3175 6.10003 26.8999 6.68243 26.8999 7.40003C26.8999 8.11763 26.3175 8.70003 25.5999 8.70003C24.8823 8.70003 24.2999 8.11763 24.2999 7.40003C24.2999 6.68243 24.8823 6.10003 25.5999 6.10003ZM16.4999 8.70003C20.8016 8.70003 24.2999 12.1983 24.2999 16.5C24.2999 20.8017 20.8016 24.3 16.4999 24.3C12.1982 24.3 8.69991 20.8017 8.69991 16.5C8.69991 12.1983 12.1982 8.70003 16.4999 8.70003ZM16.4999 11.3C15.1208 11.3 13.7981 11.8479 12.823 12.8231C11.8478 13.7983 11.2999 15.1209 11.2999 16.5C11.2999 17.8792 11.8478 19.2018 12.823 20.177C13.7981 21.1522 15.1208 21.7 16.4999 21.7C17.879 21.7 19.2017 21.1522 20.1769 20.177C21.1521 19.2018 21.6999 17.8792 21.6999 16.5C21.6999 15.1209 21.1521 13.7983 20.1769 12.8231C19.2017 11.8479 17.879 11.3 16.4999 11.3Z" fill="white"/>
</svg>
