<svg width="39" height="39" viewBox="0 0 39 39" fill="none" xmlns="http://www.w3.org/2000/svg">
<path d="M19.4999 3.8999C10.9199 3.8999 3.8999 10.9199 3.8999 19.4999C3.8999 28.0799 10.9199 35.0999 19.4999 35.0999C28.0799 35.0999 35.0999 28.0799 35.0999 19.4999C35.0999 10.9199 28.0799 3.8999 19.4999 3.8999ZM25.6502 27.2999C25.3642 27.2999 25.2212 27.1569 24.9352 27.0139C22.7902 25.7256 20.0732 25.0119 17.2132 25.0119C15.6402 25.0119 13.9242 25.2979 12.4942 25.5839C12.2082 25.5839 11.9222 25.7269 11.7792 25.7269C11.2072 25.7269 10.7782 25.2979 10.7782 24.7259C10.7782 24.1539 11.0642 23.7249 11.6362 23.7249C13.4952 23.2959 15.3555 23.0099 17.3575 23.0099C20.6465 23.0099 23.6495 23.8679 26.2235 25.2979C26.5095 25.5839 26.7955 25.7269 26.7955 26.2989C26.5069 27.0139 26.0779 27.2999 25.6502 27.2999ZM27.2219 23.2972C26.9359 23.2972 26.6499 23.1542 26.3639 23.0112C23.9329 21.4382 20.4996 20.5802 16.7829 20.5802C14.9239 20.5802 13.2066 20.8662 11.9209 21.1522C11.6349 21.2952 11.4919 21.2952 11.2059 21.2952C10.4909 21.2952 10.0606 20.7232 10.0606 20.1499C10.0606 19.4349 10.3466 19.1489 11.0616 18.8616C12.7776 18.4326 14.4949 18.0036 16.9259 18.0036C20.9299 18.0036 24.6479 19.0046 27.7952 20.8636C28.2242 21.1496 28.5102 21.5786 28.5102 22.0089C28.3659 22.7239 27.9382 23.2972 27.2219 23.2972ZM29.0809 18.7199C28.7949 18.7199 28.6519 18.5769 28.2229 18.4339C25.3629 16.8609 21.2159 15.8599 17.2119 15.8599C15.2099 15.8599 13.0649 16.1459 11.2046 16.5749C10.9186 16.5749 10.7756 16.7179 10.3466 16.7179C9.48861 16.8622 8.9166 16.1459 8.9166 15.2892C8.9166 14.4325 9.3456 14.0009 9.9176 13.8592C12.2069 13.2859 14.6379 12.9999 17.2119 12.9999C21.6449 12.9999 26.2209 14.0009 29.7972 15.8599C30.2262 16.1459 30.6552 16.5749 30.6552 17.2899C30.5122 18.1479 29.9389 18.7199 29.0809 18.7199Z" fill="#D9D9D9"/>
</svg>
