<svg width="29" height="29" viewBox="0 0 29 29" fill="none" xmlns="http://www.w3.org/2000/svg">
<path d="M26.2002 0.200195H2.80019C1.3637 0.200195 0.200195 1.3637 0.200195 2.80019V26.2002C0.200195 27.6367 1.3637 28.8002 2.80019 28.8002H26.2002C27.6367 28.8002 28.8002 27.6367 28.8002 26.2002V2.80019C28.8002 1.3637 27.6354 0.200195 26.2002 0.200195ZM24.4959 12.5164C24.3269 12.532 24.1566 12.5424 23.985 12.5424C22.0415 12.5424 20.3333 11.544 19.3388 10.0321C19.3388 13.9958 19.3388 18.5068 19.3388 18.5822C19.3388 22.0727 16.5087 24.9015 13.0195 24.9015C9.53029 24.9002 6.70019 22.0701 6.70019 18.5809C6.70019 15.0904 9.53029 12.2616 13.0195 12.2616C13.1521 12.2616 13.2808 12.2733 13.4095 12.2811V15.3959C13.2795 15.3803 13.1534 15.3569 13.0195 15.3569C11.2385 15.3569 9.79419 16.8012 9.79419 18.5822C9.79419 20.3632 11.2372 21.8075 13.0195 21.8075C14.8018 21.8075 16.3748 20.4035 16.3748 18.6225C16.3748 18.551 16.406 4.10149 16.406 4.10149H19.3817C19.6612 6.76259 21.8101 8.86339 24.4959 9.05579V12.5164Z" fill="#D9D9D9"/>
</svg>
