<svg width="32" height="34" viewBox="0 0 32 34" fill="none" xmlns="http://www.w3.org/2000/svg">
<path d="M29.0909 0H2.90909C1.30182 0 0 1.36089 0 3.0411V30.411C0 32.0912 1.30182 33.4521 2.90909 33.4521H29.0909C30.6982 33.4521 32 32.0912 32 30.411V3.0411C32 1.36089 30.6967 0 29.0909 0ZM27.184 14.4057C26.9949 14.4239 26.8044 14.4361 26.6124 14.4361C24.4378 14.4361 22.5265 13.2683 21.4138 11.4999C21.4138 16.1361 21.4138 21.4124 21.4138 21.5006C21.4138 25.5832 18.2473 28.8919 14.3433 28.8919C10.4393 28.8904 7.27273 25.5802 7.27273 21.499C7.27273 17.4164 10.4393 14.1076 14.3433 14.1076C14.4916 14.1076 14.6356 14.1213 14.7796 14.1305V17.7737C14.6342 17.7554 14.4931 17.7281 14.3433 17.7281C12.3505 17.7281 10.7345 19.4174 10.7345 21.5006C10.7345 23.5837 12.3491 25.273 14.3433 25.273C16.3375 25.273 18.0975 23.6308 18.0975 21.5477C18.0975 21.4641 18.1324 4.56317 18.1324 4.56317H21.4618C21.7745 7.67573 24.1789 10.1329 27.184 10.358V14.4057Z" fill="white"/>
</svg>
