<svg width="39" height="39" viewBox="0 0 39 39" fill="none" xmlns="http://www.w3.org/2000/svg">
<path d="M31.1999 5.19995H7.79995C6.36345 5.19995 5.19995 6.36345 5.19995 7.79995V31.1999C5.19995 32.6364 6.36345 33.7999 7.79995 33.7999H31.1999C32.6364 33.7999 33.7999 32.6364 33.7999 31.1999V7.79995C33.7999 6.36345 32.6351 5.19995 31.1999 5.19995ZM29.4956 17.5161C29.3266 17.5317 29.1563 17.5421 28.9847 17.5421C27.0412 17.5421 25.333 16.5437 24.3385 15.0318C24.3385 18.9955 24.3385 23.5065 24.3385 23.5819C24.3385 27.0724 21.5084 29.9012 18.0192 29.9012C14.53 29.8999 11.6999 27.0698 11.6999 23.5806C11.6999 20.0901 14.53 17.2613 18.0192 17.2613C18.1518 17.2613 18.2805 17.273 18.4092 17.2808V20.3956C18.2792 20.38 18.1531 20.3566 18.0192 20.3566C16.2382 20.3566 14.7939 21.8009 14.7939 23.5819C14.7939 25.3629 16.2369 26.8072 18.0192 26.8072C19.8015 26.8072 21.3745 25.4032 21.3745 23.6222C21.3745 23.5507 21.4057 9.10125 21.4057 9.10125H24.3814C24.6609 11.7623 26.8098 13.8631 29.4956 14.0555V17.5161Z" fill="#D9D9D9"/>
</svg>
