<svg width="35" height="29" viewBox="0 0 35 29" fill="none" xmlns="http://www.w3.org/2000/svg">
<path d="M17.5001 0.200195C12.0583 0.200195 4.99521 1.56367 4.99521 1.56367L4.97744 1.58398C2.49896 1.98037 0.600098 4.11011 0.600098 6.7002V14.5002V14.5027V22.3002V22.3027C0.602516 23.5397 1.04583 24.7353 1.85044 25.6749C2.65504 26.6145 3.76824 27.2364 4.99014 27.4291L4.99521 27.4367C4.99521 27.4367 12.0583 28.8027 17.5001 28.8027C22.9419 28.8027 30.005 27.4367 30.005 27.4367L30.0075 27.4342C31.2307 27.2419 32.3452 26.6195 33.1504 25.6788C33.9557 24.7381 34.3988 23.541 34.4001 22.3027V22.3002V14.5027V14.5002V6.7002C34.3983 5.46276 33.9552 4.26653 33.1506 3.32645C32.3459 2.38636 31.2324 1.76403 30.0101 1.57129L30.005 1.56367C30.005 1.56367 22.9419 0.200195 17.5001 0.200195ZM13.6001 8.51816L24.0001 14.5002L13.6001 20.4822V8.51816Z" fill="#D9D9D9"/>
</svg>
