<svg width="39" height="39" viewBox="0 0 39 39" fill="none" xmlns="http://www.w3.org/2000/svg">
<path d="M19.5001 5.19995C14.0583 5.19995 6.99521 6.56343 6.99521 6.56343L6.97744 6.58374C4.49896 6.98012 2.6001 9.10986 2.6001 11.7V19.5V19.5025V27.2999V27.3025C2.60252 28.5395 3.04583 29.7351 3.85044 30.6747C4.65504 31.6142 5.76824 32.2362 6.99014 32.4289L6.99521 32.4365C6.99521 32.4365 14.0583 33.8025 19.5001 33.8025C24.9419 33.8025 32.005 32.4365 32.005 32.4365L32.0075 32.4339C33.2307 32.2417 34.3452 31.6192 35.1504 30.6785C35.9557 29.7379 36.3988 28.5407 36.4001 27.3025V27.2999V19.5025V19.5V11.7C36.3983 10.4625 35.9552 9.26629 35.1506 8.3262C34.3459 7.38611 33.2324 6.76379 32.0101 6.57104L32.005 6.56343C32.005 6.56343 24.9419 5.19995 19.5001 5.19995ZM15.6001 13.5179L26.0001 19.5L15.6001 25.482V13.5179Z" fill="#D9D9D9"/>
</svg>
