<svg width="39" height="34" viewBox="0 0 39 34" fill="none" xmlns="http://www.w3.org/2000/svg">
<path d="M19.5 0.136108C13.221 0.136108 5.07129 1.71519 5.07129 1.71519L5.05078 1.73871C2.19099 2.19778 0 4.66429 0 7.66394V16.6973V16.7003V25.7307V25.7337C0.00279068 27.1663 0.514305 28.5509 1.4427 29.6391C2.37109 30.7272 3.65554 31.4475 5.06543 31.6707L5.07129 31.6795C5.07129 31.6795 13.221 33.2615 19.5 33.2615C25.779 33.2615 33.9287 31.6795 33.9287 31.6795L33.9316 31.6765C35.3431 31.4539 36.629 30.733 37.5581 29.6436C38.4872 28.5541 38.9985 27.1677 39 25.7337V25.7307V16.7003V16.6973V7.66394C38.9979 6.23083 38.4867 4.84545 37.5583 3.75671C36.6298 2.66796 35.345 1.94723 33.9346 1.72401L33.9287 1.71519C33.9287 1.71519 25.779 0.136108 19.5 0.136108ZM15 9.76938L27 16.6973L15 23.6253V9.76938Z" fill="white"/>
</svg>
